<svg version="1.2" xmlns="http://www.w3.org/2000/svg" viewBox="0 0 110 110" width="110" height="110">
	<title>mrh_drywall_red_icon</title>
	<style>
		.s0 { fill: #b52127 } 
	</style>
	<g id="Layer 1">
		<g id="&lt;Group&gt;">
			<g id="&lt;Group&gt;">
				<path id="&lt;Compound Path&gt;" fill-rule="evenodd" class="s0" d="m94.6 110c-2.5-0.1-4.8-1.1-6.4-2.8l-25.4-28.1v20.8c0 3.6-3 6.5-6.6 6.5-3.6 0-6.6-2.9-6.6-6.5v-5.3c0-2.4-1.9-4.4-4.4-4.4-2.4 0-4.3 2-4.3 4.4 0 3.6-3 6.6-6.6 6.6-3.6 0-6.6-3-6.6-6.6v-7.8c0-2.4-2-4.4-4.4-4.4-2.4 0-4.4 2-4.4 4.4v16.6c0 3.7-2.9 6.6-6.5 6.6-3.7 0-6.6-2.9-6.6-6.6v-61c0-0.6 0.5-1.1 1.1-1.1 0.6 0 1.1 0.5 1.1 1.1v61c0 2.5 2 4.4 4.4 4.4 2.4 0 4.4-1.9 4.4-4.4v-16.6c0-3.6 2.9-6.6 6.5-6.6 3.7 0 6.6 3 6.6 6.6v7.8c0 2.4 2 4.4 4.4 4.4 2.4 0 4.4-2 4.4-4.4 0-3.6 2.9-6.6 6.5-6.6 3.7 0 6.6 3 6.6 6.6v5.3c0 2.4 2 4.4 4.4 4.4 2.4 0 4.4-2 4.4-4.4v-18.6l-1.4 0.3q-2.6 0.6-5.5 0.6 0 0 0 0c-6 0-11.7-2-16.2-5.8l-20.2-16.5c-0.2-0.2-0.3-0.5-0.3-0.8-0.1-0.3 0.1-0.6 0.3-0.8l10.4-10.5v-14.4c0-0.6 0.5-1.1 1.1-1.1 0.6 0 1.1 0.5 1.1 1.1v12.2l22.8-22.7q0.3-0.3 0.7-0.3 0.6 0 0.9 0.4l6.3 7.6v-28.4h-8.8v8.7c0 0.6-0.5 1.1-1.1 1.1-0.6 0-1.1-0.5-1.1-1.1v-8.7h-30.7v10.6c0 0.6-0.4 1.1-1 1.1-0.7 0-1.1-0.5-1.1-1.1v-10.6h-8.8v20.5c0 0.6-0.5 1.1-1.1 1.1-0.6 0-1.1-0.5-1.1-1.1v-21.6c0-0.6 0.5-1.1 1.1-1.1h54.8c0.6 0 1.1 0.5 1.1 1.1v32.2l8 9.8c3.9 4.6 5.9 10.5 5.8 16.5 0 3.1-0.7 6.2-1.9 9l-0.3 0.7 27.2 24.5c1.7 1.6 2.7 3.9 2.8 6.4 0.1 2.6-1 5.2-2.8 7-1.8 1.8-4.3 2.8-6.8 2.8zm-21.9-37.7q-1.2 1.8-2.7 3.3-1.5 1.5-3.2 2.7l-1.1 0.7 24.2 26.7c1.2 1.3 2.9 2.1 4.7 2.1h0.2c2 0 3.9-0.8 5.3-2.1 1.4-1.5 2.2-3.4 2.1-5.5 0-1.8-0.8-3.5-2.1-4.7l-26.7-24.2zm-53-13.4l19.2 15.8c4.1 3.4 9.4 5.3 14.8 5.3 5.7 0 10.9-2.1 14.8-6 7.7-7.7 8-20.7 0.7-29.6l-15.8-19.2z"/>
			</g>
			<g id="&lt;Group&gt;">
				<path id="&lt;Path&gt;" class="s0" d="m39.8 22.5c-0.6 0-1.1-0.5-1.1-1.1v-8.4c0-0.6 0.5-1.1 1.1-1.1 0.6 0 1.1 0.5 1.1 1.1v8.4c0 0.6-0.5 1.1-1.1 1.1z"/>
			</g>
			<g id="&lt;Group&gt;">
				<path id="&lt;Path&gt;" class="s0" d="m6.9 33.6c-0.6 0-1.1-0.5-1.1-1.1 0-0.6 0.5-1.1 1.1-1.1 0.6 0 1.1 0.5 1.1 1.1 0 0.6-0.5 1.1-1.1 1.1z"/>
			</g>
		</g>
	</g>
</svg>